<svg xmlns="http://www.w3.org/2000/svg" viewBox="0 0 450 450"><defs><style>.a{fill:#fff;}.b{fill:#231f20;}</style></defs><rect class="a" x="146.21" y="17.29" width="284.5" height="209.88"/><path class="b" d="M423.71,24.29V220.16H153.21V24.29h270.5m14-14H139.21V234.16h298.5V10.29Z"/><rect class="a" x="103.9" y="85.8" width="284.5" height="209.88"/><path class="b" d="M381.4,92.8V288.68H110.9V92.8H381.4m14-14H96.9V302.68H395.4V78.8Z"/><rect class="a" x="61.6" y="154.32" width="284.5" height="209.88"/><path class="b" d="M339.1,161.32V357.2H68.6V161.32H339.1m14-14H54.6V371.2H353.1V147.32Z"/><rect class="a" x="19.29" y="222.84" width="284.5" height="209.87"/><path class="b" d="M296.79,229.84V425.71H26.29V229.84h270.5m14-14H12.29V439.71h298.5V215.84Z"/></svg>