<svg xmlns="http://www.w3.org/2000/svg" viewBox="0 0 450 450"><defs><style>.a{fill:#fff;}.b{fill:#231f20;}</style></defs><rect class="a" x="25.08" y="25.31" width="94.86" height="94.86"/><path class="b" d="M112.44,32.81v79.86H32.58V32.81h79.86m15-15H17.58V127.67H127.44V17.81Z"/><rect class="a" x="177.76" y="25.31" width="94.86" height="94.86"/><path class="b" d="M265.11,32.81v79.86H185.26V32.81h79.85m15-15H170.26V127.67H280.11V17.81Z"/><rect class="a" x="329.64" y="25.31" width="94.86" height="94.86"/><path class="b" d="M417,32.81v79.86H337.14V32.81H417m15-15H322.14V127.67H432V17.81Z"/><rect class="a" x="178.12" y="177.57" width="94.86" height="94.86"/><path class="b" d="M265.48,185.07v79.86H185.62V185.07h79.86m15-15H170.62V279.93H280.48V170.07Z"/><rect class="a" x="329.67" y="177.57" width="94.86" height="94.86"/><path class="b" d="M417,185.07v79.86H337.17V185.07H417m15-15H322.17V279.93H432V170.07Z"/><rect class="a" x="26.27" y="177.57" width="94.86" height="94.86"/><path class="b" d="M113.63,185.07v79.86H33.77V185.07h79.86m15-15H18.77V279.93H128.63V170.07Z"/><rect class="a" x="26.68" y="329.83" width="94.86" height="94.86"/><path class="b" d="M114,337.33v79.86H34.18V337.33H114m15-15H19.18V432.19H129V322.33Z"/><rect class="a" x="178.13" y="329.83" width="94.86" height="94.86"/><path class="b" d="M265.49,337.33v79.86H185.63V337.33h79.86m15-15H170.63V432.19H280.49V322.33Z"/><rect class="a" x="330.06" y="329.83" width="94.86" height="94.86"/><path class="b" d="M417.42,337.33v79.86H337.56V337.33h79.86m15-15H322.56V432.19H432.42V322.33Z"/></svg>